<svg xmlns="http://www.w3.org/2000/svg" width="512" height="512" viewBox="0 0 512 512" fill="none" role="img" aria-label="Kite Beach Forecast"><title>Kite Beach Forecast</title><mask id="k"><rect x="0" y="0" width="512" height="512" rx="128" fill="#fff"/><g transform="translate(80 80) scale(22)" fill="none" stroke="#000"><path stroke-linecap="round" stroke-linejoin="round" stroke-width="1.5" d="M12.42 3.75a5.849 5.849 0 0 1 0 8.5m-8.84 0a5.849 5.849 0 0 1 0-8.5m6.718 2a3.135 3.135 0 0 1 0 4.5m-4.596 0a3.135 3.135 0 0 1 0-4.5"/><path stroke-linecap="round" stroke-linejoin="round" d="M8.5 8a.5.5 0 1 1-1 0 .5.5 0 0 1 1 0Z"/></g></mask><rect x="0" y="0" width="512" height="512" rx="128" fill="#FFFFFF" mask="url(#k)"/></svg>
