<svg xmlns="http://www.w3.org/2000/svg" width="659" height="308" viewBox="0 0 659 308" fill="none" role="img" aria-label="Kite Beach Forecast"><title>Kite Beach Forecast</title><rect x="229.5" y="0" width="200" height="200" rx="50" fill="#E11D48"/><g transform="translate(260.75 31.25) scale(8.59375)" fill="none" stroke="#FFFFFF"><path stroke-linecap="round" stroke-linejoin="round" stroke-width="1.5" d="M12.42 3.75a5.849 5.849 0 0 1 0 8.5m-8.84 0a5.849 5.849 0 0 1 0-8.5m6.718 2a3.135 3.135 0 0 1 0 4.5m-4.596 0a3.135 3.135 0 0 1 0-4.5"/><path stroke-linecap="round" stroke-linejoin="round" d="M8.5 8a.5.5 0 1 1-1 0 .5.5 0 0 1 1 0Z"/></g><path transform="translate(0.24400000000019872 307.12)" fill="#09090B" d="M9.36 0L0 0L0 -51.12L9.36 -51.12L9.36 -27.79L29.38 -51.12L40.46 -51.12L21.31 -28.66L41.69 0L30.96 0L15.12 -22.25L9.36 -15.7L9.36 0M54.72 0L45.5 0L45.5 -38.45L54.72 -38.45L54.72 0M54.94 -43.56L45.36 -43.56L45.36 -51.77L54.94 -51.77L54.94 -43.56M84.67 0L76.46 0Q70.7 0 68 -2.63Q65.3 -5.26 65.3 -11.02L65.3 -11.02L65.3 -31.32L59.26 -31.32L59.26 -38.45L65.3 -38.45L65.3 -47.45L74.52 -47.45L74.52 -38.45L84.67 -38.45L84.67 -31.32L74.52 -31.32L74.52 -11.88Q74.52 -9.14 75.71 -8.14Q76.9 -7.13 79.27 -7.13L79.27 -7.13L84.67 -7.13L84.67 0M105.98 0.86L105.98 0.86Q100.22 0.86 95.98 -1.62Q91.73 -4.1 89.42 -8.64Q87.12 -13.18 87.12 -19.22L87.12 -19.22Q87.12 -25.27 89.42 -29.81Q91.73 -34.34 95.94 -36.83Q100.15 -39.31 105.77 -39.31L105.77 -39.31Q111.24 -39.31 115.34 -36.86Q119.45 -34.42 121.72 -29.81Q123.98 -25.2 123.98 -18.72L123.98 -18.72L123.98 -16.63L96.7 -16.63Q96.91 -11.59 99.43 -9.04Q101.95 -6.48 106.06 -6.48L106.06 -6.48Q112.32 -6.48 114.05 -11.81L114.05 -11.81L123.48 -11.23Q121.9 -5.62 117.25 -2.38Q112.61 0.86 105.98 0.86M96.7 -22.82L96.7 -22.82L114.48 -22.82Q114.12 -27.5 111.78 -29.77Q109.44 -32.04 105.77 -32.04L105.77 -32.04Q102.02 -32.04 99.65 -29.66Q97.27 -27.29 96.7 -22.82M168.48 0L146.74 0L146.74 -51.12L165.89 -51.12Q175.25 -51.12 180.11 -47.77Q184.97 -44.42 184.97 -37.3L184.97 -37.3Q184.97 -32.76 182.3 -29.88Q179.64 -27 174.89 -26.42L174.89 -26.42Q180.72 -25.85 183.92 -22.57Q187.13 -19.3 187.13 -14.04L187.13 -14.04Q187.13 -6.98 182.27 -3.49Q177.41 0 168.48 0L168.48 0M156.1 -43.2L156.1 -29.66L165.6 -29.66Q170.21 -29.66 172.8 -31.39Q175.39 -33.12 175.39 -36.43L175.39 -36.43Q175.39 -39.89 172.87 -41.54Q170.35 -43.2 165.6 -43.2L165.6 -43.2L156.1 -43.2M156.1 -22.32L156.1 -7.92L168.05 -7.92Q172.44 -7.92 175 -9.72Q177.55 -11.52 177.55 -15.05L177.55 -15.05Q177.55 -18.58 175 -20.45Q172.44 -22.32 168.05 -22.32L168.05 -22.32L156.1 -22.32M210.89 0.86L210.89 0.86Q205.13 0.86 200.88 -1.62Q196.63 -4.1 194.33 -8.64Q192.02 -13.18 192.02 -19.22L192.02 -19.22Q192.02 -25.27 194.33 -29.81Q196.63 -34.34 200.84 -36.83Q205.06 -39.31 210.67 -39.31L210.67 -39.31Q216.14 -39.31 220.25 -36.86Q224.35 -34.42 226.62 -29.81Q228.89 -25.2 228.89 -18.72L228.89 -18.72L228.89 -16.63L201.6 -16.63Q201.82 -11.59 204.34 -9.04Q206.86 -6.48 210.96 -6.48L210.96 -6.48Q217.22 -6.48 218.95 -11.81L218.95 -11.81L228.38 -11.23Q226.8 -5.62 222.16 -2.38Q217.51 0.86 210.89 0.86M201.6 -22.82L201.6 -22.82L219.38 -22.82Q219.02 -27.5 216.68 -29.77Q214.34 -32.04 210.67 -32.04L210.67 -32.04Q206.93 -32.04 204.55 -29.66Q202.18 -27.29 201.6 -22.82M246.38 0.86L246.38 0.86Q240.34 0.86 236.66 -1.87Q232.99 -4.61 232.99 -9.65L232.99 -9.65Q232.99 -14.62 236.09 -17.42Q239.18 -20.23 245.52 -21.46L245.52 -21.46L258.26 -23.98Q258.26 -32.18 250.85 -32.18L250.85 -32.18Q247.54 -32.18 245.59 -30.64Q243.65 -29.09 243 -26.21L243 -26.21L233.64 -26.64Q234.79 -32.69 239.26 -36Q243.72 -39.31 250.85 -39.31L250.85 -39.31Q259.06 -39.31 263.27 -35.17Q267.48 -31.03 267.48 -23.33L267.48 -23.33L267.48 -9.36Q267.48 -7.85 268.02 -7.27Q268.56 -6.7 269.64 -6.7L269.64 -6.7L270.86 -6.7L270.86 0Q269.64 0.29 267.48 0.29L267.48 0.29Q264.38 0.29 262.22 -1.01Q260.06 -2.3 259.49 -5.83L259.49 -5.83L259.49 -5.9Q258.05 -2.88 254.56 -1.01Q251.06 0.86 246.38 0.86M248.26 -5.83L248.26 -5.83Q252.86 -5.83 255.56 -8.5Q258.26 -11.16 258.26 -15.55L258.26 -15.55L258.26 -17.71L248.33 -15.7Q245.23 -15.05 243.9 -13.79Q242.57 -12.53 242.57 -10.51L242.57 -10.51Q242.57 -5.83 248.26 -5.83M291.67 0.86L291.67 0.86Q285.91 0.86 281.66 -1.62Q277.42 -4.1 275.08 -8.64Q272.74 -13.18 272.74 -19.22L272.74 -19.22Q272.74 -25.27 275.08 -29.81Q277.42 -34.34 281.66 -36.83Q285.91 -39.31 291.67 -39.31L291.67 -39.31Q299.02 -39.31 303.88 -35.5Q308.74 -31.68 309.6 -24.84L309.6 -24.84L300.1 -24.34Q299.52 -28.01 297.25 -29.92Q294.98 -31.82 291.67 -31.82L291.67 -31.82Q287.21 -31.82 284.76 -28.51Q282.31 -25.2 282.31 -19.22L282.31 -19.22Q282.31 -13.25 284.76 -9.94Q287.21 -6.62 291.67 -6.62L291.67 -6.62Q295.06 -6.62 297.32 -8.57Q299.59 -10.51 300.1 -14.62L300.1 -14.62L309.6 -14.18Q308.81 -7.27 303.95 -3.2Q299.09 0.86 291.67 0.86M323.78 0L314.57 0L314.57 -51.12L323.78 -51.12L323.78 -33.34Q325.37 -36.36 328.25 -37.84Q331.13 -39.31 334.73 -39.31L334.73 -39.31Q341.14 -39.31 344.45 -35.24Q347.76 -31.18 347.76 -24.7L347.76 -24.7L347.76 0L338.54 0L338.54 -22.46Q338.54 -31.82 331.99 -31.82L331.99 -31.82Q328.18 -31.82 325.98 -29.38Q323.78 -26.93 323.78 -22.25L323.78 -22.25L323.78 0M382.03 0L372.67 0L372.67 -51.12L406.87 -51.12L406.87 -42.98L382.03 -42.98L382.03 -29.02L405.58 -29.02L405.58 -20.95L382.03 -20.95L382.03 0M428.54 0.86L428.54 0.86Q422.86 0.86 418.57 -1.62Q414.29 -4.1 411.95 -8.6Q409.61 -13.1 409.61 -19.22L409.61 -19.22Q409.61 -25.34 411.95 -29.84Q414.29 -34.34 418.57 -36.83Q422.86 -39.31 428.54 -39.31L428.54 -39.31Q434.23 -39.31 438.48 -36.83Q442.73 -34.34 445.07 -29.84Q447.41 -25.34 447.41 -19.22L447.41 -19.22Q447.41 -13.1 445.07 -8.6Q442.73 -4.1 438.48 -1.62Q434.23 0.86 428.54 0.86M428.54 -6.62L428.54 -6.62Q432.94 -6.62 435.38 -9.94Q437.83 -13.25 437.83 -19.22L437.83 -19.22Q437.83 -25.2 435.38 -28.51Q432.94 -31.82 428.54 -31.82L428.54 -31.82Q424.08 -31.82 421.63 -28.51Q419.18 -25.2 419.18 -19.22L419.18 -19.22Q419.18 -13.25 421.63 -9.94Q424.08 -6.62 428.54 -6.62M462.31 0L453.1 0L453.1 -38.45L461.74 -38.45L461.95 -30.96Q463.1 -34.85 465.34 -36.65Q467.57 -38.45 471.17 -38.45L471.17 -38.45L474.7 -38.45L474.7 -30.53L471.1 -30.53Q466.7 -30.53 464.51 -28.55Q462.31 -26.57 462.31 -22.18L462.31 -22.18L462.31 0M494.86 0.86L494.86 0.86Q489.1 0.86 484.85 -1.62Q480.6 -4.1 478.3 -8.64Q475.99 -13.18 475.99 -19.22L475.99 -19.22Q475.99 -25.27 478.3 -29.81Q480.6 -34.34 484.81 -36.83Q489.02 -39.31 494.64 -39.31L494.64 -39.31Q500.11 -39.31 504.22 -36.86Q508.32 -34.42 510.59 -29.81Q512.86 -25.2 512.86 -18.72L512.86 -18.72L512.86 -16.63L485.57 -16.63Q485.78 -11.59 488.3 -9.04Q490.82 -6.48 494.93 -6.48L494.93 -6.48Q501.19 -6.48 502.92 -11.81L502.92 -11.81L512.35 -11.23Q510.77 -5.62 506.12 -2.38Q501.48 0.86 494.86 0.86M485.57 -22.82L485.57 -22.82L503.35 -22.82Q502.99 -27.5 500.65 -29.77Q498.31 -32.04 494.64 -32.04L494.64 -32.04Q490.9 -32.04 488.52 -29.66Q486.14 -27.29 485.57 -22.82M535.32 0.86L535.32 0.86Q529.56 0.86 525.31 -1.62Q521.06 -4.1 518.72 -8.64Q516.38 -13.18 516.38 -19.22L516.38 -19.22Q516.38 -25.27 518.72 -29.81Q521.06 -34.34 525.31 -36.83Q529.56 -39.31 535.32 -39.31L535.32 -39.31Q542.66 -39.31 547.52 -35.5Q552.38 -31.68 553.25 -24.84L553.25 -24.84L543.74 -24.34Q543.17 -28.01 540.9 -29.92Q538.63 -31.82 535.32 -31.82L535.32 -31.82Q530.86 -31.82 528.41 -28.51Q525.96 -25.2 525.96 -19.22L525.96 -19.22Q525.96 -13.25 528.41 -9.94Q530.86 -6.62 535.32 -6.62L535.32 -6.62Q538.7 -6.62 540.97 -8.57Q543.24 -10.51 543.74 -14.62L543.74 -14.62L553.25 -14.18Q552.46 -7.27 547.6 -3.2Q542.74 0.86 535.32 0.86M569.95 0.86L569.95 0.86Q563.9 0.86 560.23 -1.87Q556.56 -4.61 556.56 -9.65L556.56 -9.65Q556.56 -14.62 559.66 -17.42Q562.75 -20.23 569.09 -21.46L569.09 -21.46L581.83 -23.98Q581.83 -32.18 574.42 -32.18L574.42 -32.18Q571.1 -32.18 569.16 -30.64Q567.22 -29.09 566.57 -26.21L566.57 -26.21L557.21 -26.64Q558.36 -32.69 562.82 -36Q567.29 -39.31 574.42 -39.31L574.42 -39.31Q582.62 -39.31 586.84 -35.17Q591.05 -31.03 591.05 -23.33L591.05 -23.33L591.05 -9.36Q591.05 -7.85 591.59 -7.27Q592.13 -6.7 593.21 -6.7L593.21 -6.7L594.43 -6.7L594.43 0Q593.21 0.29 591.05 0.29L591.05 0.29Q587.95 0.29 585.79 -1.01Q583.63 -2.3 583.06 -5.83L583.06 -5.83L583.06 -5.9Q581.62 -2.88 578.12 -1.01Q574.63 0.86 569.95 0.86M571.82 -5.83L571.82 -5.83Q576.43 -5.83 579.13 -8.5Q581.83 -11.16 581.83 -15.55L581.83 -15.55L581.83 -17.71L571.9 -15.7Q568.8 -15.05 567.47 -13.79Q566.14 -12.53 566.14 -10.51L566.14 -10.51Q566.14 -5.83 571.82 -5.83M614.16 0.86L614.16 0.86Q605.38 0.86 601.06 -2.81Q596.74 -6.48 596.3 -12.1L596.3 -12.1L605.74 -12.53Q606.24 -9.5 608.15 -7.85Q610.06 -6.19 614.23 -6.19L614.23 -6.19Q617.47 -6.19 619.16 -7.24Q620.86 -8.28 620.86 -10.51L620.86 -10.51Q620.86 -11.81 620.24 -12.67Q619.63 -13.54 617.87 -14.18Q616.1 -14.83 612.72 -15.48L612.72 -15.48Q606.89 -16.49 603.58 -17.96Q600.26 -19.44 598.93 -21.67Q597.6 -23.9 597.6 -27.22L597.6 -27.22Q597.6 -32.54 601.74 -35.93Q605.88 -39.31 613.87 -39.31L613.87 -39.31Q619.42 -39.31 622.98 -37.55Q626.54 -35.78 628.38 -32.87Q630.22 -29.95 630.5 -26.35L630.5 -26.35L621.14 -25.92Q621 -28.66 619.27 -30.46Q617.54 -32.26 613.73 -32.26L613.73 -32.26Q610.49 -32.26 608.8 -30.96Q607.1 -29.66 607.1 -27.5L607.1 -27.5Q607.1 -25.2 608.72 -24.08Q610.34 -22.97 614.66 -22.25L614.66 -22.25Q620.57 -21.38 624.02 -19.87Q627.48 -18.36 628.96 -16.09Q630.43 -13.82 630.43 -10.66L630.43 -10.66Q630.43 -5.11 626 -2.12Q621.58 0.86 614.16 0.86M658.51 0L650.3 0Q644.54 0 641.84 -2.63Q639.14 -5.26 639.14 -11.02L639.14 -11.02L639.14 -31.32L633.1 -31.32L633.1 -38.45L639.14 -38.45L639.14 -47.45L648.36 -47.45L648.36 -38.45L658.51 -38.45L658.51 -31.32L648.36 -31.32L648.36 -11.88Q648.36 -9.14 649.55 -8.14Q650.74 -7.13 653.11 -7.13L653.11 -7.13L658.51 -7.13L658.51 0"/></svg>
