<svg width="512" height="512" viewBox="0 0 512 512" fill="none" xmlns="http://www.w3.org/2000/svg">
<path d="M361.707 361.506C353.384 369.843 339.879 369.847 331.54 361.526C323.203 353.203 323.177 339.698 331.499 331.36L361.707 361.506ZM362.686 256.006C362.686 229.512 352.829 204.024 335.144 184.464L331.499 180.631L330.04 179.026C323.21 170.641 323.722 158.269 331.54 150.464C339.357 142.668 351.711 142.189 360.082 149.026L361.707 150.506L366.79 155.86C391.547 183.243 405.353 218.915 405.353 256.006C405.351 295.564 389.654 333.509 361.707 361.506L331.499 331.36C351.462 311.362 362.685 284.262 362.686 256.006Z" fill="black"/>
<path d="M422.017 421.842C413.69 430.171 400.184 430.187 391.85 421.862C383.515 413.536 383.524 400.031 391.85 391.696L422.017 421.842ZM447.996 256.008C447.996 208.305 430.24 162.428 398.392 127.217L391.85 120.321L390.371 118.696C383.545 110.316 384.044 97.9602 391.85 90.154C399.666 82.3471 412.037 81.8541 420.413 88.6957L422.017 90.154L430.038 98.5915C468.964 141.628 490.663 197.704 490.663 256.008C490.66 318.196 465.965 377.843 422.017 421.842L391.85 391.696C427.807 355.697 447.994 306.888 447.996 256.008Z" fill="black"/>
<path d="M120.17 391.696C128.487 400.032 128.482 413.539 120.149 421.862C111.815 430.187 98.3088 430.172 89.982 421.842L120.17 391.696ZM21.3362 256.008C21.3362 193.817 46.0318 134.155 89.982 90.154C98.3091 81.826 111.815 81.8303 120.149 90.154C128.476 98.4807 128.492 111.987 120.17 120.321C84.2103 156.321 64.0028 205.125 64.0028 256.008L64.232 265.508C66.5814 312.93 86.4564 357.944 120.17 391.696L105.065 406.758L89.982 421.842C48.7801 380.592 24.5022 325.589 21.6278 267.633L21.3362 256.008Z" fill="black"/>
<path d="M106.651 256.005C106.651 216.447 122.351 178.503 150.297 150.506C158.619 142.169 172.125 142.146 180.464 150.464C188.799 158.785 188.82 172.291 180.505 180.631C160.541 200.629 149.318 227.747 149.318 256.005L149.443 261.276C150.746 287.614 161.787 312.609 180.505 331.36C188.825 339.698 188.8 353.204 180.464 361.526C172.125 369.849 158.621 369.843 150.297 361.505C124.095 335.259 108.667 300.268 106.839 263.401L106.651 256.005Z" fill="black"/>
<path d="M277.333 256C277.333 244.218 267.782 234.667 256 234.667C244.218 234.667 234.667 244.218 234.667 256C234.667 267.782 244.218 277.333 256 277.333C267.782 277.333 277.333 267.782 277.333 256ZM320 256C320 291.346 291.346 320 256 320C220.654 320 192 291.346 192 256C192 220.654 220.654 192 256 192C291.346 192 320 220.654 320 256Z" fill="black"/>
</svg>
